<svg width="168" height="48" viewBox="0 0 168 48" fill="none" xmlns="http://www.w3.org/2000/svg" role="img" aria-labelledby="title desc">
  <title id="title">Digital Menu logo</title>
  <desc id="desc">A plate, leaf, and QR-inspired menu mark for a restaurant digital menu system.</desc>
  <rect width="48" height="48" rx="12" fill="#2D7A2D"/>
  <path d="M13.5 24C13.5 18.201 18.201 13.5 24 13.5C29.799 13.5 34.5 18.201 34.5 24C34.5 29.799 29.799 34.5 24 34.5C18.201 34.5 13.5 29.799 13.5 24Z" fill="#FFF7ED"/>
  <path d="M19.18 25.78C23.1 18.86 29.8 17.94 32.8 18.58C32.28 21.5 29.72 27.62 21.7 28.46C21.28 29.44 20.78 30.36 20.2 31.18L17.8 29.72C18.36 28.94 18.82 28.06 19.18 25.78Z" fill="#4CAF50"/>
  <path d="M22.95 25.72C24.32 23.62 26.43 22.08 29.02 21.3" stroke="#FFF7ED" stroke-width="1.6" stroke-linecap="round"/>
  <path d="M10 11.2C10 10.537 10.537 10 11.2 10H15.7V12.6H12.6V15.7H10V11.2Z" fill="#E65100"/>
  <path d="M38 11.2C38 10.537 37.463 10 36.8 10H32.3V12.6H35.4V15.7H38V11.2Z" fill="#E65100"/>
  <path d="M10 36.8C10 37.463 10.537 38 11.2 38H15.7V35.4H12.6V32.3H10V36.8Z" fill="#E65100"/>
  <path d="M38 36.8C38 37.463 37.463 38 36.8 38H32.3V35.4H35.4V32.3H38V36.8Z" fill="#E65100"/>
  <path d="M60 15.5H70.5C77.8 15.5 82.4 20 82.4 26.95C82.4 33.95 77.8 38.5 70.5 38.5H60V15.5ZM70.2 33.8C74.15 33.8 76.55 31.35 76.55 26.95C76.55 22.6 74.15 20.2 70.2 20.2H65.65V33.8H70.2Z" fill="#1A4A1A"/>
  <path d="M85.63 15.5H91.12V38.5H85.63V15.5Z" fill="#1A4A1A"/>
  <path d="M95.25 15.5H101.1L107.35 25.8L113.55 15.5H119.4V38.5H114.05V24.3L108.8 32.65H105.85L100.6 24.3V38.5H95.25V15.5Z" fill="#1A4A1A"/>
  <path d="M123.56 15.5H141.2V20.05H129.05V24.55H139.65V28.9H129.05V33.95H141.6V38.5H123.56V15.5Z" fill="#1A4A1A"/>
  <path d="M145.2 15.5H150.2L159.75 29.05V15.5H165.1V38.5H160.1L150.55 24.95V38.5H145.2V15.5Z" fill="#1A4A1A"/>
</svg>
